<?xml version="1.0" encoding="UTF-8" standalone="no"?>
<!-- Created with Inkscape (http://www.inkscape.org/) -->

<svg
   xmlns:osb="http://www.openswatchbook.org/uri/2009/osb"
   xmlns:dc="http://purl.org/dc/elements/1.1/"
   xmlns:cc="http://creativecommons.org/ns#"
   xmlns:rdf="http://www.w3.org/1999/02/22-rdf-syntax-ns#"
   xmlns:svg="http://www.w3.org/2000/svg"
   xmlns="http://www.w3.org/2000/svg"
   xmlns:sodipodi="http://sodipodi.sourceforge.net/DTD/sodipodi-0.dtd"
   xmlns:inkscape="http://www.inkscape.org/namespaces/inkscape"
   version="1.1"
   id="svg2"
   xml:space="preserve"
   width="1103.0333"
   height="341.75055"
   viewBox="0 0 1103.0333 341.75055"
   sodipodi:docname="Logo(1).svg"
   inkscape:version="0.92.2 (5c3e80d, 2017-08-06)"><metadata
     id="metadata8"><rdf:RDF><cc:Work
         rdf:about=""><dc:format>image/svg+xml</dc:format><dc:type
           rdf:resource="http://purl.org/dc/dcmitype/StillImage" /><dc:title></dc:title></cc:Work></rdf:RDF></metadata><defs
     id="defs6"><linearGradient
       id="linearGradient879"
       osb:paint="solid"><stop
         style="stop-color:#e6e6e6;stop-opacity:1;"
         offset="0"
         id="stop877" /></linearGradient><clipPath
       clipPathUnits="userSpaceOnUse"
       id="clipPath18"><path
         d="M 0,1.2207e-4 H 960 V 540.00012 H 0 Z"
         id="path16"
         inkscape:connector-curvature="0"
         style="clip-rule:evenodd" /></clipPath><clipPath
       clipPathUnits="userSpaceOnUse"
       id="clipPath28"><path
         d="M 1.4305e-5,0 H 960.00001 V 540 H 1.4305e-5 Z"
         id="path26"
         inkscape:connector-curvature="0"
         style="clip-rule:evenodd" /></clipPath><clipPath
       clipPathUnits="userSpaceOnUse"
       id="clipPath40"><path
         d="M 1.4305e-5,0 H 960.00001 V 540 H 1.4305e-5 Z"
         id="path38"
         inkscape:connector-curvature="0"
         style="clip-rule:evenodd" /></clipPath><clipPath
       clipPathUnits="userSpaceOnUse"
       id="clipPath52"><path
         d="M 1.4305e-5,0 H 960.00001 V 540 H 1.4305e-5 Z"
         id="path50"
         inkscape:connector-curvature="0"
         style="clip-rule:evenodd" /></clipPath></defs><sodipodi:namedview
     pagecolor="#ffffff"
     bordercolor="#666666"
     borderopacity="1"
     objecttolerance="10"
     gridtolerance="10"
     guidetolerance="10"
     inkscape:pageopacity="0"
     inkscape:pageshadow="2"
     inkscape:window-width="2560"
     inkscape:window-height="1380"
     id="namedview4"
     showgrid="false"
     inkscape:zoom="0.74025241"
     inkscape:cx="348.2071"
     inkscape:cy="231.40672"
     inkscape:window-x="0"
     inkscape:window-y="31"
     inkscape:window-maximized="1"
     inkscape:current-layer="g10"
     fit-margin-top="0"
     fit-margin-left="0"
     fit-margin-right="0"
     fit-margin-bottom="0" /><g
     id="g10"
     inkscape:groupmode="layer"
     inkscape:label="Logos"
     transform="matrix(1.3333333,0,0,-1.3333333,-94.56234,634.89395)"><g
       id="g12"
       transform="matrix(0.86174479,0,0,0.47465359,70.921757,219.85751)"
       style="fill:none;fill-opacity:1;fill-rule:evenodd"><g
         id="g14"
         clip-path="url(#clipPath18)"
         style="fill:none;fill-opacity:1;fill-rule:evenodd"><path
           d="M 0,6.1035e-5 H 960 V 540.00006 H 0 Z"
           style="fill:none;fill-opacity:1;fill-rule:evenodd;stroke:none"
           id="path20"
           inkscape:connector-curvature="0" /></g></g><g
       id="g22"><g
         id="g24"
         clip-path="url(#clipPath28)"><g
           aria-label="spro"
           transform="matrix(1,0,0,-1,309.91,293.66)"
           style="font-variant:normal;font-weight:bold;font-size:199.00999451px;font-family:Catamaran;-inkscape-font-specification:Catamaran-Bold;writing-mode:lr-tb;fill:#333333;fill-opacity:1;fill-rule:nonzero;stroke:none"
           id="text32"><path
             d="m 5.3732699,-7.5623798 q 6.1693101,4.7762399 16.1198091,7.36336981 9.9505,2.58712989 17.31387,2.58712989 19.502979,0 29.851499,-7.7613898 10.34852,-7.9604001 10.34852,-22.4881291 0,-11.54258 -9.35347,-19.50298 -9.35347,-7.960399 -23.483179,-13.134659 -7.36337,-2.58713 -11.34357,-4.57723 -3.78119,-2.18911 -3.78119,-4.77624 0,-3.38317 3.18416,-5.77129 3.38317,-2.58713 8.35842,-2.58713 6.36832,0 12.139609,1.59208 5.9703,1.59208 13.53268,4.97525 l 7.76139,-17.31387 q -6.76634,-4.577229 -16.51783,-7.363369 -9.751489,-2.78614 -16.517829,-2.78614 -17.31387,0 -27.463379,7.9604 -10.1495101,7.761389 -10.1495101,21.493079 0,10.94555 9.1544601,18.109909 9.154459,7.16436 22.886149,11.74159 16.91585,5.17426 16.91585,12.93565 0,3.9802 -4.97525,6.16931 -4.97525,2.18911 -10.94555,2.18911 -10.54753,0 -25.274269,-6.56733 z"
             style=""
             id="path843" /><path
             d="m 139.90403,-99.106977 q 22.48813,0 35.42378,13.731689 13.13466,13.53268 13.13466,36.816849 0,15.12476 -5.9703,26.66734 -5.77129,11.542579 -16.91585,17.9108991 -11.14456,6.3683198 -26.46833,6.3683198 -8.15941,0 -17.31387,-4.5772298 V 41.593089 l -25.672287,1.9901 V -96.519847 h 13.134657 l 5.17426,6.567329 q 11.74159,-9.154459 25.47328,-9.154459 z m -0.99505,79.404988 q 10.54753,0 16.71684,-7.9604 6.16931,-8.15941 6.16931,-20.89605 0,-12.736639 -6.16931,-20.498029 -5.9703,-7.9604 -16.71684,-7.9604 -8.35842,0 -17.11486,5.77129 v 45.971309 q 8.15941,5.57228 17.11486,5.57228 z"
             style=""
             id="path845" /><path
             d="m 230.25456,-58.906958 q 8.35842,-7.36337 17.9109,-12.13961 9.75149,-4.77624 16.31882,-4.77624 l -5.17426,-20.697039 q -7.16436,0 -16.51783,4.97525 -9.35347,4.975249 -16.31882,11.144559 l -8.55743,-16.119809 H 204.38326 V 0 h 25.8713 z"
             style=""
             id="path847" /><path
             d="m 374.53682,-48.558439 q 0,15.32377 -6.36832,26.86635 -6.36832,11.542579 -18.10991,17.9108991 -11.54258,6.1693098 -27.06536,6.1693098 -15.52278,0 -27.26437,-6.1693098 -11.54257,-6.1693098 -17.91089,-17.5128791 -6.36832,-11.54258 -6.36832,-26.86635 0,-15.323769 6.36832,-26.866349 6.36832,-11.54258 17.91089,-17.711889 11.74159,-6.36832 27.26437,-6.36832 15.52278,0 27.06536,6.16931 11.74159,6.169309 18.10991,17.711889 6.36832,11.34357 6.36832,26.667339 z m -51.54359,28.85645 q 10.74654,0 17.71189,-8.15941 7.16436,-8.15941 7.16436,-20.69704 0,-12.537629 -6.96535,-20.498029 -6.96535,-7.9604 -17.9109,-7.9604 -10.74654,0 -17.9109,8.15941 -6.96535,8.15941 -6.96535,20.697039 0,12.53763 6.96535,20.49803 6.96535,7.9604 17.9109,7.9604 z"
             style=""
             id="path849" /></g></g></g><g
       id="g34"
       style="fill:#333333;fill-opacity:1"><g
         id="g36"
         clip-path="url(#clipPath40)"
         style="fill:#333333;fill-opacity:1"><g
           aria-label="o"
           transform="matrix(1,0,0,-1,689.4,293.66)"
           style="font-variant:normal;font-weight:bold;font-size:199.00999451px;font-family:Catamaran;-inkscape-font-specification:Catamaran-Bold;writing-mode:lr-tb;fill:#333333;fill-opacity:1;fill-rule:nonzero;stroke:none"
           id="text44"><path
             d="m 108.06243,-48.558439 q 0,15.32377 -6.36832,26.86635 -6.368323,11.542579 -18.109912,17.9108991 -11.54258,6.1693098 -27.06536,6.1693098 -15.522779,0 -27.264369,-6.1693098 Q 17.71189,-9.9504997 11.34357,-21.294069 q -6.3683201,-11.54258 -6.3683201,-26.86635 0,-15.323769 6.3683201,-26.866349 6.36832,-11.54258 17.910899,-17.711889 11.74159,-6.36832 27.264369,-6.36832 15.52278,0 27.06536,6.16931 11.741589,6.169309 18.109912,17.711889 6.36832,11.34357 6.36832,26.667339 z m -51.543592,28.85645 q 10.74654,0 17.71189,-8.15941 7.16436,-8.15941 7.16436,-20.69704 0,-12.537629 -6.96535,-20.498029 -6.96535,-7.9604 -17.9109,-7.9604 -10.746539,0 -17.910899,8.15941 -6.96535,8.15941 -6.96535,20.697039 0,12.53763 6.96535,20.49803 6.96535,7.9604 17.910899,7.9604 z"
             style="fill:#333333;fill-opacity:1"
             id="path852" /></g></g></g><g
       id="g46"><g
         id="g48"
         clip-path="url(#clipPath52)"><g
           aria-label="f"
           transform="matrix(1,0,0,-1,802.46,293.66)"
           style="font-variant:normal;font-weight:bold;font-size:199.00999451px;font-family:Catamaran;-inkscape-font-specification:Catamaran-Bold;writing-mode:lr-tb;fill:#333333;fill-opacity:1;fill-rule:nonzero;stroke:none"
           id="text56"><path
             d="M 17.31387,-76.419838 V 0 h 25.871299 v -76.419838 h 26.468329 l -8.15941,-19.900999 H 43.185169 v -3.781193 q 0,-7.9604 3.18416,-12.53763 3.18416,-4.77624 9.751489,-4.77624 4.17921,0 10.74654,2.58713 l 7.36337,-18.70694 q -3.18416,-2.58713 -8.95545,-4.37822 -5.77129,-1.79109 -10.34852,-1.79109 -17.711889,0 -27.662389,9.55248 -9.950499,9.55248 -9.950499,26.46833 v 7.363373 H 2.3881199 v 19.900999 z"
             style=""
             id="path855" /></g></g></g><path
       d="M 172.68,395.46 193.95,438 h 53.82 l 21.27,-42.54 -21.27,-42.54 h -53.82 z"
       style="fill:#42e48b;fill-opacity:1;fill-rule:evenodd;stroke:none"
       id="path58"
       inkscape:connector-curvature="0" /><path
       d="M 172.68,395.46 193.95,438 h 53.82 l 21.27,-42.54 -21.27,-42.54 h -53.82 z"
       style="fill:none;stroke:#42e48b;stroke-width:0.95999998;stroke-linecap:butt;stroke-linejoin:miter;stroke-miterlimit:10;stroke-dasharray:none;stroke-opacity:1"
       id="path60"
       inkscape:connector-curvature="0" /><path
       d="m 89.52,347.1 21.27,42.54 h 53.94 L 186,347.1 164.73,304.56 h -53.94 z"
       style="fill:#333333;fill-opacity:1;fill-rule:evenodd;stroke:none"
       id="path62"
       inkscape:connector-curvature="0" /><path
       d="m 89.52,347.1 21.27,42.54 h 53.94 L 186,347.1 164.73,304.56 h -53.94 z"
       style="fill:none;stroke:#333333;stroke-width:0.95999998;stroke-linecap:butt;stroke-linejoin:miter;stroke-miterlimit:10;stroke-dasharray:none;stroke-opacity:1"
       id="path64"
       inkscape:connector-curvature="0" /><path
       d="m 172.68,298.74 21.27,42.54 h 53.82 l 21.27,-42.54 -21.27,-42.54 h -53.82 z"
       style="fill:#a6a6a6;fill-opacity:1;stroke:#a6a6a6;stroke-width:0.95999998;stroke-linecap:butt;stroke-linejoin:miter;stroke-miterlimit:10;stroke-dasharray:none;stroke-opacity:1"
       id="path68"
       inkscape:connector-curvature="0" /></g></svg>